<svg xmlns="http://www.w3.org/2000/svg" width="20" height="23.751" viewBox="0 0 20 23.751">
  <g id="user-profile" transform="translate(-1.559)">
    <path id="패스_103" data-name="패스 103" d="M21.559,21.388H19.152a7.488,7.488,0,0,0-7.594-7.362,7.488,7.488,0,0,0-7.593,7.362H1.559a9.9,9.9,0,0,1,10-9.768A9.9,9.9,0,0,1,21.559,21.388Z" transform="translate(0 2.362)" fill="#010002"/>
    <path id="패스_104" data-name="패스 104" d="M10.985,13.2a6.6,6.6,0,1,1,6.6-6.6A6.609,6.609,0,0,1,10.985,13.2Zm0-10.794A4.193,4.193,0,1,0,15.18,6.6,4.2,4.2,0,0,0,10.985,2.407Z" transform="translate(0.575)" fill="#010002"/>
  </g>
</svg>
