<svg xmlns="http://www.w3.org/2000/svg" width="24" height="30" viewBox="0 0 24 30">
  <g id="그룹_552" data-name="그룹 552" transform="translate(-1348 -535)">
    <g id="사각형_736" data-name="사각형 736" transform="translate(1348 535)" fill="#fff" stroke="#000" stroke-width="1.2">
      <rect width="24" height="30" stroke="none"/>
      <rect x="0.6" y="0.6" width="22.8" height="28.8" fill="none"/>
    </g>
    <g id="image" transform="translate(1352 539)">
      <g id="그룹_476" data-name="그룹 476">
        <g id="그룹_475" data-name="그룹 475">
          <path id="패스_112" data-name="패스 112" d="M13.955,0H2.045A2.047,2.047,0,0,0,0,2.045V13.955A2.047,2.047,0,0,0,2.045,16H13.955A2.047,2.047,0,0,0,16,13.955V2.045A2.047,2.047,0,0,0,13.955,0Zm1.1,13.955a1.1,1.1,0,0,1-1.1,1.1H2.045a1.1,1.1,0,0,1-1.1-1.1V12.237L4.044,9.6a.3.3,0,0,1,.393,0L6.38,11.208a.471.471,0,0,0,.635-.03l4.617-4.624a.305.305,0,0,1,.453.023l2.974,3.662v3.715Zm0-5.21L12.815,5.984a1.247,1.247,0,0,0-1.851-.095L6.651,10.209,5.039,8.87a1.245,1.245,0,0,0-1.605.01L.942,11V2.045a1.1,1.1,0,0,1,1.1-1.1H13.955a1.1,1.1,0,0,1,1.1,1.1Z"/>
        </g>
      </g>
      <g id="그룹_478" data-name="그룹 478" transform="translate(2.764 1.969)">
        <g id="그룹_477" data-name="그룹 477">
          <path id="패스_113" data-name="패스 113" d="M90.733,62.995a2.272,2.272,0,1,0,2.272,2.272A2.275,2.275,0,0,0,90.733,62.995Zm0,3.6a1.33,1.33,0,1,1,1.33-1.33A1.331,1.331,0,0,1,90.733,66.6Z" transform="translate(-88.461 -62.995)"/>
        </g>
      </g>
    </g>
    <rect id="사각형_737" data-name="사각형 737" width="14" height="1.2" transform="translate(1353 557)"/>
    <rect id="사각형_738" data-name="사각형 738" width="14" height="1.2" transform="translate(1353 560)"/>
  </g>
</svg>
