<svg xmlns="http://www.w3.org/2000/svg" width="30" height="22.852" viewBox="0 0 30 22.852">
  <g id="megaphone" transform="translate(0 -61)">
    <g id="그룹_468" data-name="그룹 468" transform="translate(25.605 71.547)">
      <g id="그룹_467" data-name="그룹 467">
        <path id="패스_105" data-name="패스 105" d="M440.516,241h-2.637a.879.879,0,0,0,0,1.758h2.637a.879.879,0,0,0,0-1.758Z" transform="translate(-437 -241)"/>
      </g>
    </g>
    <g id="그룹_470" data-name="그룹 470" transform="translate(24.727 75.063)">
      <g id="그룹_469" data-name="그룹 469">
        <path id="패스_106" data-name="패스 106" d="M425.258,303.016l-1.758-1.758a.879.879,0,1,0-1.243,1.243l1.758,1.758a.879.879,0,0,0,1.243-1.243Z" transform="translate(-422 -301.001)"/>
      </g>
    </g>
    <g id="그룹_472" data-name="그룹 472" transform="translate(24.727 66.274)">
      <g id="그룹_471" data-name="그룹 471">
        <path id="패스_107" data-name="패스 107" d="M425.258,151.259a.879.879,0,0,0-1.243,0l-1.758,1.758a.879.879,0,0,0,1.243,1.243l1.758-1.758A.879.879,0,0,0,425.258,151.259Z" transform="translate(-421.999 -151.001)"/>
      </g>
    </g>
    <g id="그룹_474" data-name="그룹 474" transform="translate(0 61)">
      <g id="그룹_473" data-name="그룹 473">
        <path id="패스_108" data-name="패스 108" d="M20.332,61a2.641,2.641,0,0,0-2.607,2.243l-.8.8a7.914,7.914,0,0,1-5.5,2.229H6.152a2.641,2.641,0,0,0-2.486,1.758H3.516a3.516,3.516,0,0,0,0,7.031h.151a2.649,2.649,0,0,0,1.607,1.607v4.546a2.637,2.637,0,1,0,5.273,0V76.82h.879a7.914,7.914,0,0,1,5.5,2.228l.8.8a2.637,2.637,0,0,0,5.244-.394V63.637A2.64,2.64,0,0,0,20.332,61ZM3.516,73.3a1.758,1.758,0,0,1,0-3.516Zm5.273,7.91a.879.879,0,0,1-1.758,0V76.82H8.789Zm1.758-6.152H6.152a.88.88,0,0,1-.879-.879V68.91a.88.88,0,0,1,.879-.879h4.395ZM17.7,77.368A9.607,9.607,0,0,0,12.3,75.1V67.991a9.606,9.606,0,0,0,5.4-2.266Zm3.516,2.089a.88.88,0,0,1-.879.879h0a.88.88,0,0,1-.879-.879V63.637a.879.879,0,1,1,1.758,0Z" transform="translate(0 -61)"/>
      </g>
    </g>
  </g>
</svg>
