<svg id="check-002" xmlns="http://www.w3.org/2000/svg" width="30" height="30" viewBox="0 0 30 30">
  <path id="패스_95" data-name="패스 95" d="M15,0A15,15,0,1,0,30,15,15.017,15.017,0,0,0,15,0Zm0,0" fill="#f44336"/>
  <path id="패스_96" data-name="패스 96" d="M166.885,165.118a1.25,1.25,0,1,1-1.768,1.768l-3.756-3.756-3.756,3.756a1.25,1.25,0,0,1-1.768-1.768l3.756-3.756-3.756-3.756a1.25,1.25,0,0,1,1.768-1.768l3.756,3.756,3.756-3.756a1.25,1.25,0,1,1,1.768,1.768l-3.756,3.756Zm0,0" transform="translate(-146.362 -146.362)" fill="#fafafa"/>
</svg>
