<svg xmlns="http://www.w3.org/2000/svg" width="16" height="16" viewBox="0 0 16 16">
<g id="그룹_550" data-name="그룹 550" transform="translate(-1283 -160)">
    <circle id="타원_133" data-name="타원 133" cx="8" cy="8" r="8" transform="translate(1283 160)"/>
    <g id="pin" transform="translate(1286.801 162)">
    <g id="그룹_414" data-name="그룹 414">
        <path id="패스_85" data-name="패스 85" d="M89.533,0a4.108,4.108,0,0,0-4.2,4,3.857,3.857,0,0,0,.5,1.9l3.466,5.97a.269.269,0,0,0,.459,0L93.23,5.9a3.857,3.857,0,0,0,.5-1.9A4.108,4.108,0,0,0,89.533,0Zm0,6a2.054,2.054,0,0,1-2.1-2,2.1,2.1,0,0,1,4.2,0A2.054,2.054,0,0,1,89.533,6Z" transform="translate(-85.333)" fill="none" stroke="#fff" strokeWidth="1"/>
    </g>
    </g>
</g>
</svg>